HIERARCHY
ROOT Hips
{
	OFFSET -3.958830 18.904000 13.208200
	CHANNELS 6 Xposition Yposition Zposition Zrotation Yrotation Xrotation 
	JOINT LHipJoint
	{
		OFFSET 0.000000 0.000000 0.000000
		CHANNELS 3 Zrotation Yrotation Xrotation
		JOINT LeftUpLeg
		{
			OFFSET 1.800000 -1.400000 0.085000
			CHANNELS 3 Zrotation Yrotation Xrotation
			JOINT LeftLeg
			{
				OFFSET 2.215000 -6.000000 0.000000
				CHANNELS 3 Zrotation Yrotation Xrotation
				JOINT LeftFoot
				{
					OFFSET 2.500000 -6.900000 0.000000
					CHANNELS 3 Zrotation Yrotation Xrotation
					JOINT LeftToeBase
					{
						OFFSET 0.200000 -0.500000 1.950000
						CHANNELS 3 Zrotation Yrotation Xrotation
						End Site
						{
							OFFSET 0.000000 0.000000 0.000000
						}
					}
				}
			}
		}
	}
	JOINT RHipJoint
	{
		OFFSET 0.000000 0.000000 0.000000
		CHANNELS 3 Zrotation Yrotation Xrotation
		JOINT RightUpLeg
		{
			OFFSET -1.800000 -1.400000 0.085000
			CHANNELS 3 Zrotation Yrotation Xrotation
			JOINT RightLeg
			{
				OFFSET -2.215000 -6.000000 0.000000
				CHANNELS 3 Zrotation Yrotation Xrotation
				JOINT RightFoot
				{
					OFFSET -2.500000 -6.900000 0.000000
					CHANNELS 3 Zrotation Yrotation Xrotation
					JOINT RightToeBase
					{
						OFFSET -0.200000 -0.500000 1.950000
						CHANNELS 3 Zrotation Yrotation Xrotation
						End Site
						{
							OFFSET 0.000000 0.000000 0.000000
						}
					}
				}
			}
		}
	}
	JOINT LowerBack
	{
		OFFSET 0.000000 0.000000 0.000000
		CHANNELS 3 Zrotation Yrotation Xrotation
		JOINT Spine
		{
			OFFSET -0.087000 1.940000 -0.288900
			CHANNELS 3 Zrotation Yrotation Xrotation
			JOINT Spine1
			{
				OFFSET 0.000000 1.950000 0.060000
				CHANNELS 3 Zrotation Yrotation Xrotation
				JOINT Neck
				{
					OFFSET 0.000000 0.000000 0.000000
					CHANNELS 3 Zrotation Yrotation Xrotation
					JOINT Neck1
					{
						OFFSET 0.000000 1.600000 0.340000
						CHANNELS 3 Zrotation Yrotation Xrotation
						JOINT Head
						{
							OFFSET 0.000000 1.667000 -0.240000
							CHANNELS 3 Zrotation Yrotation Xrotation
							End Site
							{
								OFFSET 0.000000 0.000000 0.000000
							}
						}
					}
				}
				JOINT LeftShoulder
				{
					OFFSET 0.000000 0.000000 0.000000
					CHANNELS 3 Zrotation Yrotation Xrotation
					JOINT LeftArm
					{
						OFFSET 2.700000 1.550000 -0.730000
						CHANNELS 3 Zrotation Yrotation Xrotation
						JOINT LeftForeArm
						{
							OFFSET 5.450000 0.000000 0.000000
							CHANNELS 3 Zrotation Yrotation Xrotation
							JOINT LeftHand
							{
								OFFSET 3.450000 0.000000 0.000000
								CHANNELS 3 Zrotation Yrotation Xrotation
								JOINT LeftHandIndex1
								{
									OFFSET 0.750000 0.000000 0.000000
									CHANNELS 3 Zrotation Yrotation Xrotation
									End Site
									{
										OFFSET 0.000000 0.000000 0.000000
									}
								}
							}
						}
					}
				}
				JOINT RightShoulder
				{
					OFFSET 0.000000 0.000000 0.000000
					CHANNELS 3 Zrotation Yrotation Xrotation
					JOINT RightArm
					{
						OFFSET -2.700000 1.550000 -0.730000
						CHANNELS 3 Zrotation Yrotation Xrotation
						JOINT RightForeArm
						{
							OFFSET -5.450000 0.000000 0.000000
							CHANNELS 3 Zrotation Yrotation Xrotation
							JOINT RightHand
							{
								OFFSET -3.450000 0.000000 0.000000
								CHANNELS 3 Zrotation Yrotation Xrotation
								JOINT RightHandIndex1
								{
									OFFSET -0.750000 0.000000 0.000000
									CHANNELS 3 Zrotation Yrotation Xrotation
									End Site
									{
										OFFSET 0.000000 0.000000 0.000000
									}
								}
							}
						}
					}
				}
			}
		}
	}
}
MOTION
Frames: 11
Frame Time: 0.016667
6.883520 17.304410 -1.050940 163.610220 -31.547234 170.990207 -16.027352 10.805607 7.713993 20.910310 -15.663948 -31.624625 -43.760805 65.149250 80.014201 3.462666 19.460915 -1.127038 0.119930 0.021960 -0.057640 17.857413 -8.726740 0.698629 -10.004548 -1.358997 -1.853354 0.808739 -5.528985 18.284359 -0.466520 -3.890700 3.081937 0.083980 0.307690 0.124830 -1.286170 -4.293051 -8.765967 -26.060194 8.945369 25.290729 11.042053 7.287509 13.750855 -2.817747 -0.864969 -14.500723 -4.239064 2.905676 34.577971 4.429160 5.143810 -24.054220 -2.278498 -22.643858 2.528708 -14.518836 -20.940220 -8.951952 -151.638339 -74.389228 131.937634 -3.382551 2.780233 0.770660 -0.007670 0.121160 0.149440 8.366158 26.443790 17.603702 32.969918 -5.370359 -13.280584 167.046009 56.255608 127.886738 1.946363 -1.337926 -0.394630 0.472240 0.243800 -0.156630 
6.874210 17.329610 -0.959090 163.559026 -21.705289 167.881660 -16.090147 10.691767 7.715881 21.515208 -14.751945 -33.957985 -47.391382 66.116631 76.784980 3.244405 19.068027 -1.121865 0.139380 0.008700 0.006510 17.810429 -8.763231 0.678162 -10.957500 -1.306714 -0.677645 1.196144 -5.762247 17.885747 -0.527994 -4.021504 2.982784 0.102170 0.269360 0.177830 -1.313122 -4.009532 -8.721013 -27.247020 10.147592 25.165434 11.556693 8.099481 14.493644 -2.591279 2.445832 -14.685510 1.550416 -1.533943 37.068930 4.300250 3.380130 -26.544070 -1.737455 -26.194582 1.711367 -10.805178 -22.775484 -8.688161 -144.467919 -71.540562 119.991001 -3.446886 2.687576 0.857320 -0.013710 0.167720 0.093890 7.041495 28.329007 17.948888 30.124254 -2.619304 -13.050310 169.124936 55.689543 130.549220 1.876766 -1.278996 -0.412800 0.478390 0.293890 -0.219510 
6.827760 17.338060 -0.888430 163.040697 -9.765315 164.981061 -16.165708 10.396562 7.837138 21.830214 -11.689032 -36.045805 -37.668663 66.637028 85.398848 3.516532 20.379843 -1.443757 0.235080 0.150060 0.071950 17.780961 -8.705691 0.642385 -12.073920 -0.929028 0.616255 1.943986 -5.829657 16.985545 -0.617505 -4.103736 2.914546 0.164300 0.169990 0.186260 -1.391537 -3.522996 -8.780272 -27.001784 11.373895 24.409140 10.858735 9.161242 14.403739 -2.065335 4.154531 -14.693615 4.482359 -4.938082 39.728737 6.071040 1.399520 -30.225230 -1.641979 -27.045817 1.441920 -9.276124 -24.004244 -7.395849 -147.174846 -69.182508 121.640965 -3.367595 2.771985 0.898360 -0.086210 0.261330 0.085440 5.854481 28.921933 17.287264 26.248022 1.104754 -11.875752 170.776867 54.789389 133.747452 1.861625 -1.285008 -0.356160 0.466350 0.247200 -0.219480 
6.752390 17.332880 -0.790240 162.248989 3.419364 160.797092 -16.106000 10.286518 7.676442 26.405788 -13.564512 -34.642761 -64.584615 70.925988 64.269740 2.788228 16.268394 -0.506724 0.256480 0.236900 0.008650 17.828022 -9.058791 0.590963 -12.848625 -1.854149 0.636867 1.280803 -6.140404 17.696823 -0.637906 -4.222574 2.872229 0.182030 0.176710 0.176790 -1.684212 -2.746211 -8.733540 -26.334721 12.487688 26.109080 10.040120 12.018713 13.684227 -2.172866 4.812273 -14.272686 5.704409 -8.587437 39.513393 11.676550 -2.066380 -31.074280 -1.403415 -27.391165 0.458350 -6.645799 -24.283569 -8.367495 -150.730206 -67.536194 124.936235 -3.273544 2.888777 0.841790 -0.115450 0.281820 0.123000 5.878466 30.180890 17.219771 19.905827 3.736988 -11.248148 174.857540 54.167586 142.443176 1.846818 -1.379979 -0.289090 0.455750 0.209970 -0.137610 
6.640260 17.315230 -0.728830 161.843663 12.630216 158.705422 -16.133292 9.545395 8.306223 27.500099 -12.726913 -38.656370 -51.289818 74.612257 78.831701 3.371704 18.156027 -0.856418 0.280210 0.275950 0.001510 17.888683 -8.918529 0.466632 -13.856257 -1.513160 0.594280 3.175048 -6.639160 18.052102 -0.657243 -4.374740 2.825807 0.174850 0.143450 0.148350 -1.808806 -2.021753 -9.133809 -24.074812 12.422564 27.946406 8.172427 11.715381 10.562440 -1.639563 5.450937 -14.841482 6.486040 -12.074098 41.993989 14.054370 -6.186490 -29.631240 -2.552070 -27.874716 0.696698 -3.543111 -22.895602 -7.848843 -150.679201 -67.125391 126.128618 -3.174633 2.941174 0.806240 -0.153460 0.293420 0.152080 6.067504 30.349658 16.237965 14.638748 5.358058 -10.194430 173.219783 53.404866 141.411472 1.879467 -1.466255 -0.242440 0.423600 0.150750 -0.094660 
6.527240 17.325280 -0.681190 160.490231 20.949707 156.208113 -16.066646 9.409731 8.255855 26.671751 -12.363478 -41.734273 -50.873682 73.857870 78.503405 3.545385 18.433253 -0.877427 0.249220 0.264220 -0.021400 17.933110 -9.006387 0.550476 -15.581468 -1.352808 0.853155 5.286943 -7.166158 17.162415 -0.666505 -4.536978 2.787671 0.134110 0.112890 0.116570 -1.950005 -1.620615 -9.277393 -23.080307 12.969168 30.356086 7.344911 11.614025 7.308247 -1.371237 6.112812 -15.830894 7.425999 -15.578328 43.430742 15.245640 -9.887710 -28.388740 -3.692052 -29.028031 1.072945 0.248864 -21.346165 -7.426350 -154.116515 -65.217591 130.841612 -3.075082 3.025378 0.768690 -0.173970 0.303110 0.155950 6.691177 31.063671 15.935314 9.442771 5.861574 -8.954014 173.530140 51.305072 143.323998 1.921544 -1.557404 -0.208960 0.394000 0.113550 -0.061690 
6.411310 17.331340 -0.653250 159.510065 28.716597 154.026220 -16.004807 9.511576 8.007815 25.190795 -11.989450 -43.387733 -50.645526 69.634776 75.312519 3.578745 18.518591 -0.897971 0.193550 0.227280 -0.074180 17.966577 -9.085528 0.680028 -16.143590 -1.217064 1.000859 6.763538 -7.435916 16.373029 -0.663616 -4.619880 2.778186 0.092420 0.120690 0.093140 -1.984574 -1.545951 -9.294550 -22.074305 13.289544 32.648561 7.607301 11.324030 4.454308 -1.290018 6.342504 -16.252411 7.720106 -18.804349 43.208482 17.048570 -13.732960 -28.295280 -4.156799 -28.595371 2.111424 3.053727 -18.357535 -6.364391 -159.608047 -60.857633 136.186865 -3.008182 3.144021 0.735920 -0.178940 0.302050 0.159760 6.890802 30.731862 14.736381 3.957248 7.146414 -7.559113 173.777187 49.023266 145.996684 1.972243 -1.608706 -0.195190 0.395490 0.109010 -0.022320 
6.291780 17.344580 -0.619610 157.170130 36.998215 151.525774 -15.929533 9.683110 7.657742 23.201953 -10.572837 -44.906625 -57.735257 66.379283 65.451330 3.289850 17.433914 -0.671451 0.125710 0.133290 -0.081270 18.015593 -9.188041 0.828457 -16.598720 -0.951741 0.625625 7.420602 -7.245651 14.671048 -0.625410 -4.545706 2.818877 0.051700 0.128070 0.047640 -1.996702 -1.485049 -9.210284 -22.215873 13.996272 33.019318 7.994611 11.069786 2.535627 -1.174901 6.914706 -16.744673 9.041342 -20.855735 44.078905 17.077290 -15.961770 -27.061950 -3.864113 -28.157181 3.690845 4.374445 -14.449880 -5.537171 -164.548130 -57.773711 142.536996 -2.967849 3.144718 0.756390 -0.178370 0.282030 0.135110 6.183572 30.187283 13.291868 1.018842 9.482709 -6.633327 172.267343 49.145275 146.092714 2.000102 -1.559191 -0.248630 0.427580 0.126740 -0.043410 
6.192000 17.346760 -0.618810 154.207360 46.653080 148.429523 -15.915308 9.381620 7.833727 24.292625 -9.000231 -47.717001 -56.622772 68.842774 67.849943 3.328037 17.594734 -0.680739 0.089610 0.084530 -0.087430 18.108064 -9.047008 0.780606 -16.094999 -0.706714 0.268262 7.897905 -7.119124 13.868446 -0.587986 -4.499681 2.844166 0.044020 0.140690 0.029550 -1.862310 -1.424142 -9.344226 -21.393470 14.505551 32.383150 8.054181 11.785852 0.797039 -0.579395 6.932759 -16.407924 8.991455 -22.343519 44.056313 14.408020 -17.612870 -25.371470 -5.037625 -26.904712 4.335947 5.995463 -12.487030 -3.948543 -166.882739 -53.509339 144.579353 -3.013889 3.181966 0.738070 -0.156800 0.251350 0.113480 6.220770 29.515273 11.836923 -1.487663 10.651060 -6.418641 169.812774 50.332342 144.379399 1.991719 -1.530990 -0.273310 0.454010 0.156340 -0.053620 
6.113480 17.346520 -0.625800 148.631074 56.224195 142.482478 -15.838237 8.790232 8.253612 26.728608 -7.630779 -49.264963 -52.242849 74.721871 76.120161 3.493311 18.168394 -0.745164 0.062490 0.033990 -0.079770 18.291422 -8.921264 0.606020 -15.835632 -0.526496 -0.202653 7.750975 -7.075143 14.124473 -0.566873 -4.467769 2.858511 0.038450 0.153550 -0.001930 -1.672618 -1.356891 -9.611546 -20.958063 14.944828 31.912288 8.093987 12.635514 -0.160078 -0.208080 6.244594 -16.483121 7.549732 -22.158830 45.929998 13.218470 -18.047240 -24.873120 -4.402230 -25.699996 4.922605 6.526646 -10.819820 -2.841504 -167.831439 -49.502056 143.058893 -3.011583 3.189014 0.771540 -0.159590 0.233950 0.095210 5.075812 29.356797 11.011263 -2.801620 11.093549 -6.840793 168.096369 51.304561 142.354859 1.960681 -1.482553 -0.326050 0.500430 0.181280 -0.078530 
6.031290 17.349830 -0.639370 142.907182 62.972876 135.317789 -15.706047 8.490679 8.246442 25.960737 -8.918605 -49.181851 -46.636419 74.918236 82.408591 3.720494 19.383301 -1.013391 0.096450 0.063950 -0.064360 18.426907 -8.962859 0.606917 -16.070843 -0.589252 0.512001 8.342578 -7.330091 13.982976 -0.615485 -4.638120 2.790932 0.068270 0.149230 0.012310 -1.517440 -1.629048 -9.697111 -20.025579 14.634053 32.691585 7.875116 12.888874 0.566328 -0.023084 6.469636 -16.053293 7.897341 -22.478998 45.803339 13.341640 -17.623960 -26.166600 -3.138282 -25.220135 4.061580 8.553554 -12.021670 -2.982470 -168.049526 -48.935352 142.944415 -2.982317 3.233422 0.796070 -0.161640 0.238760 0.094830 3.477791 28.876238 11.127188 -2.875188 10.079678 -7.483930 168.935882 52.575262 144.502289 1.907454 -1.475821 -0.330670 0.504590 0.188760 -0.093590 
